<svg width="79" height="79" viewBox="0 0 79 79" fill="none" xmlns="http://www.w3.org/2000/svg">
<g clip-path="url(#clip0_310_4151)">
<path d="M18.5334 11.2925H9.58331C8.92497 11.2925 8.3833 11.8124 8.3833 12.4624V21.1958C8.3833 21.8376 8.91664 22.3657 9.58331 22.3657H18.5417C19.2001 22.3657 19.7418 21.8457 19.7418 21.1958V12.4624C19.7334 11.8206 19.2001 11.2925 18.5334 11.2925ZM17.3334 20.0259H10.775V13.6322H17.3334V20.0259Z" fill="#248742"/>
<path d="M32.1252 11.2925H23.1751C22.5084 11.2925 21.9751 11.8124 21.9751 12.4624V21.1958C21.9751 21.8376 22.5084 22.3657 23.1751 22.3657H32.1335C32.8002 22.3657 33.3336 21.8457 33.3336 21.1958V12.4624C33.3252 11.8206 32.7919 11.2925 32.1252 11.2925ZM30.9252 20.0259H24.3668V13.6322H30.9252V20.0259Z" fill="#248742"/>
<path d="M18.5334 25.5911H9.58331C8.92497 25.5911 8.3833 26.111 8.3833 26.7609V35.4863C8.3833 36.1281 8.91664 36.6561 9.58331 36.6561H18.5417C19.2001 36.6561 19.7418 36.1362 19.7418 35.4863V26.7609C19.7334 26.111 19.2001 25.5911 18.5334 25.5911ZM17.3334 34.3164H10.775V27.9308H17.3334V34.3164Z" fill="#248742"/>
<path d="M32.1252 25.5911H23.1751C22.5084 25.5911 21.9751 26.111 21.9751 26.7609V35.4863C21.9751 36.1281 22.5084 36.6561 23.1751 36.6561H32.1335C32.8002 36.6561 33.3336 36.1362 33.3336 35.4863V26.7609C33.3252 26.111 32.7919 25.5911 32.1252 25.5911ZM30.9252 34.3164H24.3668V27.9308H30.9252V34.3164Z" fill="#248742"/>
<path d="M18.5334 39.8813H9.58331C8.92497 39.8813 8.3833 40.4013 8.3833 41.0512V49.7765C8.3833 50.4265 8.91664 50.9464 9.58331 50.9464H18.5417C19.2001 50.9464 19.7418 50.4265 19.7418 49.7765V41.0512C19.7334 40.4013 19.2001 39.8813 18.5334 39.8813ZM17.3334 48.6067H10.775V42.213H17.3334V48.6067Z" fill="#248742"/>
<path d="M32.1252 39.8813H23.1751C22.5084 39.8813 21.9751 40.4013 21.9751 41.0512V49.7765C21.9751 50.4265 22.5084 50.9464 23.1751 50.9464H32.1335C32.8002 50.9464 33.3336 50.4265 33.3336 49.7765V41.0512C33.3252 40.4013 32.7919 39.8813 32.1252 39.8813ZM30.9252 48.6067H24.3668V42.213H30.9252V48.6067Z" fill="#248742"/>
<path d="M46.5755 50.9464H55.5339C56.1923 50.9464 56.7339 50.4265 56.7339 49.7765V41.0512C56.7339 40.4013 56.1923 39.8813 55.5339 39.8813H46.5755C45.9172 39.8813 45.3755 40.4013 45.3755 41.0512V49.7765C45.3755 50.4265 45.9088 50.9464 46.5755 50.9464ZM47.7755 42.2211H54.3339V48.6148H47.7755V42.2211Z" fill="#248742"/>
<path d="M60.1673 50.9464H69.1257C69.7841 50.9464 70.3257 50.4265 70.3257 49.7765V41.0512C70.3257 40.4013 69.7841 39.8813 69.1257 39.8813H60.1673C59.509 39.8813 58.9673 40.4013 58.9673 41.0512V49.7765C58.9673 50.4265 59.509 50.9464 60.1673 50.9464ZM61.3673 42.2211H67.9257V48.6148H61.3673V42.2211Z" fill="#248742"/>
<path d="M74.2842 31.7329H43.4338C42.3255 31.7329 41.4338 30.8636 41.4338 29.7831V3.89959C41.4338 1.74669 39.6421 0 37.4338 0H4.00005C1.79169 0 0 1.74669 0 3.89959V12.1943V14.8834V18.783V74.3846V76.3344C0 77.4149 0.891677 78.2842 2.00002 78.2842H39.4088H39.4338H74.2925C76.5009 78.2842 78.2925 76.5375 78.2925 74.3846V35.6325C78.2842 33.4796 76.4925 31.7329 74.2842 31.7329ZM21.5169 75.1645H18.8502C17.7419 75.1645 16.8502 74.2953 16.8502 73.2148V60.143C16.8502 59.0625 17.7419 58.1932 18.8502 58.1932H21.5169C22.6253 58.1932 23.5169 59.0625 23.5169 60.143V73.2148C23.5169 74.2871 22.6253 75.1645 21.5169 75.1645ZM37.4338 33.4471C37.4254 33.5283 37.4088 33.6014 37.4088 33.6827V72.4348C37.4088 73.5153 36.5171 74.3846 35.4087 74.3846H27.917C26.8086 74.3846 25.917 73.5153 25.917 72.4348V58.9731C25.917 57.2508 24.4836 55.8535 22.7169 55.8535H17.6502C15.8835 55.8535 14.4502 57.2508 14.4502 58.9731V72.4348C14.4502 73.5153 13.5585 74.3846 12.4501 74.3846H6.00007C4.89172 74.3846 4.00005 73.5153 4.00005 72.4348V16.8251V5.84938C4.00005 4.76887 4.89172 3.89959 6.00007 3.89959H35.4337C36.5421 3.89959 37.4338 4.76887 37.4338 5.84938V33.4471ZM59.184 75.1645H56.5173C55.409 75.1645 54.5173 74.2953 54.5173 73.2148V60.143C54.5173 59.0625 55.409 58.1932 56.5173 58.1932H59.184C60.2923 58.1932 61.184 59.0625 61.184 60.143V73.2148C61.184 74.2871 60.284 75.1645 59.184 75.1645ZM72.2925 74.3846H65.5841C64.4757 74.3846 63.5841 73.5153 63.5841 72.4348V58.9731C63.5841 57.2508 62.1507 55.8535 60.384 55.8535H55.3173C53.5506 55.8535 52.1173 57.2508 52.1173 58.9731V72.4348C52.1173 73.5153 51.2256 74.3846 50.1172 74.3846H43.4088C42.3005 74.3846 41.4088 73.5153 41.4088 72.4348V37.5823C41.4088 36.5018 42.3005 35.6325 43.4088 35.6325H72.2925C73.4008 35.6325 74.2925 36.5018 74.2925 37.5823V72.4348C74.2842 73.5072 73.3925 74.3846 72.2925 74.3846Z" fill="#248742"/>
</g>
<defs>
<clipPath id="clip0_310_4151">
<rect width="78.2842" height="78.2842" fill="white"/>
</clipPath>
</defs>
</svg>
