<svg width="131" height="60" viewBox="0 0 131 60" fill="none" xmlns="http://www.w3.org/2000/svg">
<path d="M85.411 60H128.792C129.639 60 130.402 59.5181 130.779 58.7488C131.147 57.9889 131.055 57.0714 130.54 56.4041L95.6492 11.2882C95.2353 10.7507 94.5914 10.4356 93.9106 10.4356C93.2299 10.4356 92.586 10.7507 92.1721 11.2882L85.549 19.861C82.8261 14.532 77.316 10.8712 70.9689 10.8712C65.6612 10.8712 60.9422 13.4384 57.9434 17.3865L45.571 0.880445C45.1479 0.324374 44.4947 0 43.8048 0C43.1149 0 42.4618 0.324374 42.0387 0.880445L0.441726 56.4412C-0.0642079 57.1177 -0.146997 58.0167 0.230154 58.7674C0.607304 59.5181 1.3708 60 2.20789 60H59.0196H85.411ZM43.8048 5.91288L80.9771 55.5514H63.5362H6.63251L43.8048 5.91288ZM82.4214 23.8925L72.4499 36.7841L60.7306 21.1307C62.8371 17.6552 66.627 15.329 70.9597 15.329C76.3502 15.3197 80.9312 18.9342 82.4214 23.8925ZM86.5056 55.5514L75.2095 40.4634L93.9106 16.2836L124.285 55.5514H86.5056Z" fill="#248742"/>
</svg>
