<svg width="80" height="69" viewBox="0 0 80 69" fill="none" xmlns="http://www.w3.org/2000/svg">
<g clip-path="url(#clip0_310_4140)">
<path d="M39.9693 68.5693C27.508 68.5693 15.0445 68.5693 2.58329 68.5693C0.575835 68.5693 0.00682808 68.002 0.00682808 65.9995C0.00682808 62.2229 0.00455205 58.444 0.00682808 54.6674C0.0091041 52.9271 0.609975 52.3463 2.36251 52.3259C3.66668 52.3101 4.98449 52.3734 6.27045 52.2152C9.13369 51.8603 11.0501 49.4149 10.8862 46.4813C10.736 43.7941 8.47136 41.6153 5.68779 41.5204C4.49743 41.4797 3.30251 41.5204 2.11215 41.4978C0.7215 41.4729 0.0159322 40.7836 0.0113801 39.3936C-0.00455205 35.391 -0.00227603 31.3884 0.0091041 27.3857C0.0136562 25.9234 0.680531 25.268 2.15084 25.2635C6.04057 25.2545 9.9303 25.2477 13.8177 25.2748C14.4027 25.2793 14.7577 25.0782 15.0878 24.6307C17.0588 21.9638 16.0915 18.108 13.0393 16.6661C11.94 16.1463 10.7884 15.7394 9.664 15.2761C8.28701 14.7111 7.91146 13.8342 8.48047 12.4465C9.98265 8.80093 11.4917 5.15765 13.0075 1.51437C13.6311 0.0136611 14.4596 -0.329874 15.9686 0.287133C32.422 7.01771 48.8754 13.7528 65.3288 20.4834C68.9977 21.9841 72.6598 23.4938 76.3402 24.9652C76.8477 25.1686 77.4326 25.216 77.988 25.2454C79.2466 25.3155 79.9727 25.9393 79.9795 27.1846C80.0046 31.3002 80.0046 35.4159 79.9795 39.5315C79.9727 40.7655 79.2466 41.4526 77.9948 41.4888C76.8591 41.5204 75.7234 41.482 74.5876 41.5023C71.4763 41.5588 69.1411 43.8121 69.0956 46.7887C69.0478 49.8195 71.3124 52.17 74.4556 52.3101C75.6164 52.3621 76.784 52.3124 77.947 52.3282C79.2603 52.3485 79.975 53.0062 79.9818 54.299C80.0046 58.3853 80.0068 62.4738 79.9818 66.5623C79.9727 67.9071 79.2239 68.5602 77.7809 68.5625C74.203 68.5738 70.6273 68.567 67.0494 68.567C58.0227 68.5693 48.996 68.5693 39.9693 68.5693ZM76.2628 64.8876C76.2628 61.8522 76.2628 58.9096 76.2628 55.9082C75.4889 55.9082 74.7811 55.933 74.0755 55.9037C68.9727 55.7003 64.9691 51.1145 65.4926 46.0813C65.9911 41.3012 69.7442 37.9494 74.7014 37.8636C75.2272 37.8545 75.7529 37.8613 76.2605 37.8613C76.2605 34.783 76.2605 31.8404 76.2605 28.9C52.0436 28.9 27.895 28.9 3.71903 28.9C3.71903 31.8901 3.71903 34.8328 3.71903 37.8658C6.46164 37.7415 9.03354 38.1076 11.1935 39.8999C13.3694 41.7057 14.5051 44.0291 14.5484 46.8316C14.5825 49.0171 13.8655 50.9879 12.4408 52.674C10.1647 55.3658 7.13761 56.1636 3.7213 55.9037C3.7213 58.9616 3.7213 61.9042 3.7213 64.8898C27.9223 64.8876 52.0686 64.8876 76.2628 64.8876ZM66.947 25.2341C66.9652 25.1799 66.9811 25.1256 66.9994 25.0714C49.9679 18.1035 32.9364 11.1356 15.8548 4.14738C15.2516 5.59385 14.6781 6.96799 14.1091 8.34439C13.5423 9.71175 12.9824 11.0814 12.3884 12.5301C15.1356 13.4025 17.3615 14.8218 18.668 17.3644C19.9789 19.9184 20.0017 22.5446 18.9138 25.2319C34.9984 25.2341 50.9739 25.2341 66.947 25.2341Z" fill="#248742"/>
<path d="M34.6389 54.1046C38.0438 54.1046 41.4464 54.1001 44.8514 54.1092C45.2451 54.1092 45.6548 54.125 46.0258 54.2403C46.8179 54.4821 47.2116 55.0855 47.2594 55.8879C47.3049 56.6586 46.7746 57.4044 46.0144 57.6101C45.6116 57.7185 45.1746 57.7366 44.7535 57.7389C37.9459 57.7457 31.1383 57.7457 24.3307 57.7434C22.7261 57.7434 21.859 57.1219 21.8317 55.9602C21.8043 54.7691 22.6988 54.1069 24.3444 54.1069C27.7744 54.1024 31.2066 54.1046 34.6389 54.1046Z" fill="#248742"/>
<path d="M34.6319 36.0872C38.0072 36.0872 41.3826 36.0872 44.7579 36.0872C45.0424 36.0872 45.3269 36.0804 45.6091 36.1075C46.5469 36.1957 47.2411 36.9279 47.2638 37.8388C47.2866 38.6999 46.6538 39.4796 45.7753 39.6446C45.5272 39.692 45.2677 39.6807 45.0128 39.6807C38.0345 39.683 31.0562 39.6875 24.0779 39.6694C23.6136 39.6672 23.1084 39.5768 22.6964 39.3756C21.9772 39.0208 21.6949 38.1981 21.9043 37.4206C22.1228 36.6093 22.7328 36.1098 23.6546 36.1007C26.0649 36.0781 28.4775 36.0894 30.8878 36.0872C32.1374 36.0849 33.3846 36.0872 34.6319 36.0872Z" fill="#248742"/>
<path d="M34.55 48.6893C31.145 48.6893 27.7424 48.6893 24.3374 48.6893C24.0529 48.6893 23.7684 48.6961 23.4862 48.669C22.5485 48.5808 21.8543 47.8531 21.827 46.9423C21.7997 46.0473 22.4734 45.2585 23.3929 45.1161C23.559 45.0913 23.732 45.0935 23.9027 45.0935C30.9948 45.0935 38.0869 45.089 45.179 45.0958C46.6948 45.098 47.6052 46.2349 47.1455 47.5096C46.8678 48.278 46.226 48.6803 45.1858 48.6826C41.642 48.6939 38.096 48.6893 34.55 48.6893Z" fill="#248742"/>
<path d="M54.5338 36.0284C54.5338 35.4363 54.4996 34.8441 54.5429 34.2542C54.6203 33.2033 55.3736 32.4755 56.3387 32.4642C57.2992 32.4529 58.1094 33.1739 58.1618 34.2181C58.2209 35.4544 58.2232 36.6974 58.1618 37.9337C58.1094 38.9892 57.3105 39.6875 56.3341 39.674C55.36 39.6604 54.6203 38.9462 54.5452 37.884C54.4974 37.2692 54.5338 36.6477 54.5338 36.0284Z" fill="#248742"/>
<path d="M58.1818 46.9018C58.1818 47.4646 58.2046 48.0296 58.1772 48.5923C58.1181 49.754 57.3693 50.5157 56.3314 50.5021C55.3277 50.4886 54.5766 49.745 54.5356 48.6308C54.4946 47.4781 54.4946 46.3209 54.5356 45.166C54.5743 44.0586 55.3368 43.3037 56.3337 43.2924C57.326 43.2789 58.0999 44.0337 58.1704 45.1299C58.2091 45.7198 58.1772 46.3119 58.1772 46.9041C58.1795 46.9018 58.1818 46.9018 58.1818 46.9018Z" fill="#248742"/>
<path d="M58.1773 57.6553C58.1773 58.2745 58.2115 58.8961 58.1705 59.5131C58.0954 60.616 57.3284 61.3483 56.3201 61.3302C55.346 61.3121 54.588 60.5979 54.5425 59.5311C54.4924 58.322 54.4902 57.1083 54.5448 55.8992C54.5926 54.8482 55.3801 54.125 56.3429 54.1182C57.3056 54.1114 58.0772 54.8347 58.1614 55.8811C58.2092 56.4687 58.1705 57.0631 58.1705 57.6553C58.1751 57.6553 58.1751 57.6553 58.1773 57.6553Z" fill="#248742"/>
</g>
<defs>
<clipPath id="clip0_310_4140">
<rect width="80" height="68.5714" fill="white"/>
</clipPath>
</defs>
</svg>
