<svg width="82" height="80" viewBox="0 0 82 80" fill="none" xmlns="http://www.w3.org/2000/svg">
<path d="M14.2361 23.4523C14.204 23.1381 13.9227 22.9044 13.5931 22.9447C13.0706 23.0011 12.6526 23.0656 12.331 23.122C11.897 23.1945 11.6478 23.2509 11.6317 23.2509C11.3182 23.3234 11.1253 23.6295 11.1896 23.9437C11.2459 24.2176 11.487 24.3949 11.7523 24.3949C11.7925 24.3949 11.8327 24.3868 11.8809 24.3787C11.8889 24.3787 12.5722 24.2257 13.7217 24.0968C13.7378 24.0968 13.7538 24.0807 13.778 24.0807C14.0673 24.0162 14.2683 23.7503 14.2361 23.4523Z" fill="#248742" stroke="#248742" stroke-miterlimit="10"/>
<path d="M66.6142 50.8036C66.3892 50.997 66.1641 51.1904 65.931 51.3676C65.6818 51.5609 65.6335 51.9315 65.8265 52.1813C65.939 52.3263 66.1078 52.4069 66.2847 52.4069C66.3972 52.4069 66.5097 52.3666 66.6142 52.3021C66.6223 52.2941 66.6303 52.2941 66.6464 52.286C66.8956 52.0927 67.1448 51.8832 67.3859 51.6737C68.1496 51.0131 68.8891 50.2719 69.5965 49.4582C69.8055 49.2165 69.7814 48.854 69.5402 48.6445C69.2991 48.4351 68.9373 48.4592 68.7283 48.7009C68.2943 49.2004 67.8441 49.6677 67.3859 50.1108C67.1287 50.3525 66.8715 50.5861 66.6142 50.8036Z" fill="#248742" stroke="#248742" stroke-miterlimit="10"/>
<path d="M35.2884 30.7191C35.401 30.8319 35.5537 30.8883 35.6984 30.8883C35.8431 30.8883 35.9958 30.8319 36.1083 30.7191C36.3334 30.4936 36.3334 30.131 36.1164 29.8974C35.7305 29.5026 35.3125 29.132 34.9026 28.7695C34.6534 28.552 34.3962 28.3425 34.1309 28.133C33.7611 27.8349 33.3914 27.5369 33.0055 27.2629C32.7403 27.0776 32.3866 27.1421 32.2017 27.408C32.0168 27.6738 32.0811 28.0283 32.3464 28.2136C32.9653 28.6486 33.5602 29.132 34.1309 29.6315C34.3962 29.8652 34.6534 30.0988 34.9026 30.3485C35.0232 30.4774 35.1598 30.5902 35.2884 30.7191Z" fill="#248742" stroke="#248742" stroke-miterlimit="10"/>
<path d="M39.726 37.0594C39.8305 37.2689 40.0315 37.3817 40.2485 37.3817C40.337 37.3817 40.4173 37.3656 40.5058 37.3253C40.7952 37.1883 40.9077 36.8338 40.771 36.5519C40.3611 35.714 39.9029 34.9245 39.4286 34.1591C39.1955 33.7805 38.9624 33.4018 38.7132 33.0393C38.6971 33.0151 38.673 32.999 38.6569 32.9829C38.464 32.7734 38.1505 32.7331 37.9094 32.8943C37.6441 33.0796 37.5798 33.4421 37.7647 33.6999C38.0782 34.143 38.3675 34.6183 38.6569 35.0937C38.9302 35.5448 39.1794 36.0121 39.4286 36.4955C39.517 36.6888 39.6296 36.8741 39.726 37.0594Z" fill="#248742" stroke="#248742" stroke-miterlimit="10"/>
<path d="M48.1179 50.9003C48.1983 50.9406 48.2787 50.9647 48.3671 50.9647C48.5198 50.9647 48.6645 50.9083 48.777 50.7875C49.0021 50.5619 48.9941 50.1913 48.769 49.9657C48.552 49.7482 48.3349 49.5307 48.1179 49.2971C47.8607 49.0151 47.6034 48.7251 47.3462 48.427C46.9684 47.9839 46.5986 47.5166 46.2369 47.0252C46.044 46.7673 45.6903 46.711 45.425 46.9043C45.1678 47.0977 45.1115 47.4602 45.3044 47.718C45.9556 48.6042 46.6388 49.426 47.3462 50.1671C47.5472 50.3847 47.7562 50.5941 47.9652 50.7955C48.0134 50.8439 48.0616 50.8681 48.1179 50.9003Z" fill="#248742" stroke="#248742" stroke-miterlimit="10"/>
<path d="M43.6167 44.6001C43.681 44.6001 43.7373 44.5759 43.8016 44.5518C43.8337 44.5437 43.8739 44.5437 43.9061 44.5276C44.1874 44.3665 44.2839 44.012 44.1231 43.7381C44.0106 43.5447 43.9141 43.3353 43.8016 43.1339C43.5363 42.6505 43.2791 42.151 43.0299 41.6434C42.8048 41.1761 42.5797 40.7169 42.3627 40.2335C42.2341 39.9435 41.8884 39.8146 41.599 39.9435C41.3097 40.0724 41.173 40.4188 41.3097 40.7089C41.8482 41.9173 42.427 43.0775 43.0299 44.157C43.062 44.2054 43.0861 44.2698 43.1183 44.3181C43.2228 44.4954 43.4157 44.6001 43.6167 44.6001Z" fill="#248742" stroke="#248742" stroke-miterlimit="10"/>
<path d="M21.5189 24.1611C21.5511 24.1691 21.5752 24.1691 21.5993 24.1691C21.8887 24.1691 22.1298 23.9597 22.17 23.6696C22.2102 23.3554 21.9932 23.0574 21.6716 23.0171C21.1491 22.9446 20.6186 22.9043 20.0881 22.856C19.8308 22.8318 19.5736 22.8157 19.3164 22.7996C18.7537 22.7673 18.191 22.7351 17.6283 22.7351C17.6283 22.7351 17.6283 22.7351 17.6203 22.7351C17.3068 22.7351 17.0415 22.9929 17.0415 23.3071C17.0415 23.6294 17.2987 23.8872 17.6122 23.8872C18.183 23.8952 18.7457 23.9194 19.3083 23.9516C19.5656 23.9677 19.8228 23.9919 20.08 24.0161C20.5704 24.0564 21.0527 24.1047 21.5189 24.1611Z" fill="#248742" stroke="#248742" stroke-miterlimit="10"/>
<path d="M71.2524 46.3405C71.3489 46.405 71.4614 46.4291 71.5659 46.4291C71.6302 46.4291 71.6945 46.405 71.7588 46.3808C71.8714 46.3405 71.9839 46.2761 72.0563 46.1633C72.4019 45.6235 72.7476 45.0515 73.0691 44.4795C73.2299 44.1975 73.1334 43.8511 72.8521 43.69C72.5707 43.5288 72.217 43.6336 72.0643 43.9075C71.9678 44.0767 71.8633 44.2378 71.7588 44.407C71.5338 44.7856 71.3167 45.1723 71.0836 45.5349C70.9068 45.8088 70.9872 46.1633 71.2524 46.3405Z" fill="#248742" stroke="#248742" stroke-miterlimit="10"/>
<path d="M24.4609 0.572008C24.1152 0.362542 23.6811 0.346429 23.3274 0.531726L1.02081 12.1732C0.643008 12.3746 0.401855 12.7694 0.401855 13.2044V77.4864C0.401855 77.8892 0.610855 78.2679 0.956507 78.4773C1.14139 78.5901 1.35039 78.6465 1.55939 78.6465C1.74427 78.6465 1.92916 78.5982 2.08993 78.5176L24.3885 66.8761C24.7744 66.6747 25.0075 66.28 25.0075 65.8449V24.709C25.0798 24.8218 25.1843 24.9104 25.329 24.9507C26.5348 25.289 27.7084 25.7241 28.8097 26.2236V66.8036C28.8097 67.2387 29.0508 67.6334 29.4286 67.8348L51.7272 79.4763C51.896 79.565 52.0809 79.6052 52.2578 79.6052C52.4668 79.6052 52.6758 79.5489 52.8606 79.4361C53.2063 79.2266 53.4153 78.8479 53.4153 78.4451V54.4854C53.9217 54.6949 54.4281 54.8721 54.9345 55.0091C54.9828 55.0252 55.039 55.0332 55.0873 55.0332C55.3445 55.0332 55.5776 54.8641 55.6419 54.6063C55.7223 54.3001 55.5455 53.9779 55.232 53.8973C54.621 53.7281 54.0101 53.5106 53.4072 53.2367V14.1631C53.4072 13.7281 53.1661 13.3333 52.7883 13.1319L30.5058 1.49044C30.1521 1.30514 29.718 1.3132 29.3723 1.53072C29.0267 1.74019 28.8177 2.11884 28.8177 2.52166V24.9748C27.7968 24.5398 26.7438 24.145 25.6506 23.8389C25.4014 23.7664 25.1522 23.8792 25.0155 24.0806V1.56295C25.0155 1.16013 24.8065 0.781475 24.4609 0.572008ZM22.7005 65.144L20.096 66.5055L19.3243 66.9084L15.5704 68.8661L14.7987 69.2689L11.1733 71.1621L10.6991 71.4119L6.84867 73.426L6.43068 73.6435L2.733 75.577V13.9053L10.5062 9.84492L10.8357 9.67574L22.7246 3.47231V65.144H22.7005ZM31.1247 4.43102L34.1231 5.99396L34.8947 6.39678L38.6487 8.35449L39.4204 8.75731L43.0216 10.6344L43.7933 11.0373L51.1083 14.856V52.4069C51.06 52.4471 51.0118 52.4874 50.9796 52.5438C50.8269 52.7936 50.8912 53.1078 51.1083 53.285V76.5277L48.1099 74.9648L47.3382 74.5619L43.7852 72.709L43.0136 72.3062L39.4123 70.421L38.6407 70.0181L34.8867 68.0604L34.115 67.6576L31.1167 66.0947V4.43102H31.1247Z" fill="#248742" stroke="#248742" stroke-miterlimit="10"/>
<path d="M56.9844 13.2044V77.4864C56.9844 77.8892 57.1934 78.2679 57.539 78.4773C57.7239 78.5901 57.9329 78.6465 58.1419 78.6465C58.3268 78.6465 58.5117 78.5982 58.6724 78.5176L71.4133 71.8711L71.6625 71.7422L75.6014 69.6878L76.2846 69.3333L80.971 66.8842C81.3569 66.6828 81.59 66.288 81.59 65.853V1.56294C81.59 1.16013 81.381 0.781475 81.0353 0.572008C80.6897 0.362542 80.2556 0.346429 79.9019 0.531726L57.6033 12.1732C57.2255 12.3746 56.9844 12.7694 56.9844 13.2044ZM79.283 65.144L76.2846 66.707L75.513 67.1098L71.759 69.0675L70.9873 69.4703L67.3861 71.3474L66.6144 71.7503L63.0614 73.6032L62.2897 74.006L59.2914 75.569V55.3797C60.2962 55.283 61.301 55.0574 62.2897 54.711C62.547 54.6224 62.8042 54.5257 63.0614 54.4129C63.0775 54.4048 63.0936 54.4048 63.1097 54.3968C63.399 54.2679 63.5437 53.9295 63.4151 53.6395C63.3508 53.4784 63.2142 53.3736 63.0614 53.3253C62.9328 53.285 62.7881 53.2769 62.6515 53.3333C62.5309 53.3817 62.4103 53.422 62.2897 53.4703C61.301 53.857 60.2962 54.1068 59.2914 54.2115V13.9053L62.2897 12.3424L62.8926 12.0282L66.6064 10.0866L67.3781 9.68379L70.9793 7.79859L71.751 7.39577L75.5049 5.43807L76.2766 5.03525L79.2749 3.47231V65.144H79.283Z" fill="#248742" stroke="#248742" stroke-miterlimit="10"/>
</svg>
