<svg width="27" height="23" viewBox="0 0 27 23" fill="none" xmlns="http://www.w3.org/2000/svg">
<path d="M0 7.07856C0.0898634 6.60164 0.144707 6.11651 0.274876 5.64971C0.995105 3.06299 2.5849 1.17364 5.29798 0.361303C8.19211 -0.505358 10.7189 0.203384 12.8049 2.31255C13.0454 2.55638 13.2595 2.82421 13.5139 3.11289C13.6103 2.99477 13.7022 2.87917 13.798 2.7661C14.9913 1.36251 16.4628 0.370778 18.3672 0.106106C20.693 -0.217313 22.7771 0.353092 24.4832 1.91586C26.5804 3.83679 27.2643 6.24348 26.9134 8.95148C26.6927 10.6583 25.8833 12.1263 24.8168 13.4774C23.6513 14.9543 22.2643 16.2303 20.8126 17.4419C18.7669 19.1493 16.7073 20.8415 14.651 22.5376C13.9269 23.1352 13.1207 23.1585 12.4117 22.5711C9.93453 20.5188 7.4514 18.4721 5.00394 16.3876C3.72933 15.3017 2.57895 14.0959 1.64067 12.7207C0.786966 11.4738 0.20814 10.1289 0.0475748 8.63501C0.0403064 8.56932 0.016519 8.50489 0 8.44045C0 7.98628 0 7.53273 0 7.07856ZM13.4894 21.4757C13.5562 21.4252 13.5978 21.3955 13.6368 21.3633C15.6336 19.7172 17.637 18.0786 19.6239 16.4211C21.0624 15.2209 22.4454 13.9657 23.601 12.5015C24.9734 10.7625 25.7029 8.84852 25.3276 6.64081C25.0098 4.77231 24.1197 3.22154 22.3588 2.28287C20.3375 1.20522 18.2958 1.22038 16.3512 2.5128C15.555 3.04214 14.9504 3.75152 14.431 4.53227C13.9176 5.30418 13.0989 5.29533 12.5716 4.52911C12.3979 4.27707 12.2247 4.0225 12.0278 3.78689C10.997 2.55133 9.72838 1.68783 8.02956 1.56149C6.13252 1.42063 4.50044 2.00493 3.24566 3.37756C1.7378 5.02687 1.33738 6.98444 1.72789 9.10245C1.97237 10.4302 2.6622 11.5698 3.51128 12.6259C4.59823 13.979 5.87879 15.1546 7.21617 16.2733C9.2936 18.011 11.3849 19.7323 13.4894 21.4757Z" fill="#FF7B7B"/>
</svg>
