<svg width="26" height="26" viewBox="0 0 26 26" fill="none" xmlns="http://www.w3.org/2000/svg">
<path d="M17.2423 7.60449C14.6431 8.9041 12.0284 10.2115 9.43692 11.5033C9.4988 12.0139 9.6071 12.4935 9.6071 12.9809C9.6071 13.4682 9.50654 13.9556 9.44465 14.4816C12.0129 15.7657 14.6199 17.0731 17.1959 18.3572C17.5982 17.9859 17.954 17.5837 18.3795 17.2742C21.2804 15.1546 25.4113 16.9106 25.9374 20.4691C26.386 23.5634 23.8642 26.24 20.7389 25.977C18.5187 25.7913 16.6621 23.9966 16.4223 21.7765C16.3759 21.32 16.3837 20.8482 16.4455 20.3918C16.4842 20.1287 16.4146 20.0436 16.2057 19.9431C13.9624 18.8291 11.719 17.7074 9.4756 16.5857C9.22031 16.4542 8.9573 16.3382 8.70202 16.1912C8.5473 16.1061 8.46221 16.1293 8.33843 16.2608C7.34052 17.3129 6.11826 17.8235 4.66393 17.808C2.39735 17.7771 0.355096 15.9746 0.0533999 13.739C-0.310182 11.1088 1.28339 8.80354 3.88262 8.2775C5.59223 7.93713 7.06976 8.44769 8.29202 9.68542C8.45447 9.84787 8.55504 9.86334 8.74843 9.76278C11.2394 8.50958 13.7303 7.26411 16.2289 6.02639C16.4223 5.93356 16.4842 5.84846 16.4378 5.61639C15.9582 3.00169 17.8225 0.43341 20.4527 0.0543561C23.2066 -0.340169 25.6898 1.57831 25.976 4.33225C26.2468 6.90827 24.3438 9.28316 21.7678 9.56938C19.9576 9.77825 18.4955 9.1207 17.3584 7.72053C17.3352 7.68958 17.312 7.65864 17.2887 7.6277C17.2733 7.6277 17.2655 7.61996 17.2423 7.60449ZM7.74278 12.9963C7.74278 11.3718 6.41222 10.0413 4.79544 10.049C3.19413 10.049 1.86358 11.3718 1.85584 12.9731C1.84037 14.5744 3.17866 15.9282 4.79544 15.9359C6.40449 15.9514 7.73504 14.6209 7.74278 12.9963ZM18.2402 21.1731C18.2325 22.7899 19.5631 24.1281 21.1798 24.1281C22.7889 24.1281 24.1349 22.7744 24.1272 21.1731C24.1195 19.564 22.8121 18.2567 21.1953 18.2412C19.5708 18.2257 18.248 19.5486 18.2402 21.1731ZM21.1798 7.74373C22.7966 7.74373 24.1349 6.41318 24.1272 4.7964C24.1195 3.18735 22.7734 1.84132 21.1644 1.8568C19.5553 1.86453 18.248 3.17962 18.2402 4.7964C18.2248 6.41318 19.5553 7.74373 21.1798 7.74373Z" fill="#53B7FF"/>
</svg>
