<svg width="17" height="12" viewBox="0 0 17 12" fill="none" xmlns="http://www.w3.org/2000/svg">
<path d="M16.4845 1.83056C16.2938 1.11062 15.729 0.543214 15.0105 0.34974C13.7105 -1.92939e-06 8.49935 0 8.49935 0C8.49935 0 3.28824 -1.92939e-06 1.98824 0.34974C1.27158 0.543214 0.706757 1.10875 0.514165 1.83056C0.166017 3.13651 0.166016 5.86003 0.166016 5.86003C0.166016 5.86003 0.166017 8.58355 0.514165 9.8895C0.706757 10.6095 1.26972 11.1769 1.98824 11.3703C3.28824 11.7201 8.49935 11.7201 8.49935 11.7201C8.49935 11.7201 13.7105 11.7201 15.0105 11.3703C15.7271 11.1769 16.2919 10.6113 16.4845 9.8895C16.8327 8.58355 16.8327 5.86003 16.8327 5.86003C16.8327 5.86003 16.8327 3.13465 16.4845 1.83056ZM6.83268 8.37147V3.34859L11.1623 5.86003L6.83268 8.37147Z" fill="white"/>
</svg>
