<svg width="80" height="78" viewBox="0 0 80 78" fill="none" xmlns="http://www.w3.org/2000/svg">
<g clip-path="url(#clip0_310_4132)">
<path d="M66.6123 13.934C66.6545 14.8121 66.7027 15.6841 66.7268 16.5621C66.7509 17.3138 67.1063 17.7889 67.8354 17.9694C69.1247 18.2941 70.4201 18.5948 71.7094 18.9376C72.3662 19.112 73.0229 19.3105 73.6435 19.5811C75.9752 20.5914 76.903 22.4858 76.1439 24.8913C75.7583 26.1242 75.1859 27.3089 74.6256 28.4816C73.2458 31.3623 73.2579 31.4224 75.7884 33.431C76.7403 34.1888 77.7043 34.9525 78.5418 35.8306C80.4819 37.8813 80.4999 40.1305 78.5298 42.1632C77.4272 43.2938 76.1378 44.244 74.9268 45.2663C73.4567 46.5052 73.3965 46.7337 74.1857 48.5138C74.7943 49.885 75.4992 51.2141 76.0053 52.6213C77.0356 55.514 76.0535 57.5768 73.1555 58.5871C71.7155 59.0923 70.2032 59.3689 68.721 59.7478C66.8955 60.2168 66.7629 60.3492 66.6846 62.2014C66.6183 63.6748 66.6726 65.1482 66.5641 66.6156C66.3532 69.5504 64.5276 71.2463 61.8405 71.0418C61.0211 70.9817 60.2077 70.8313 59.4064 70.675C58.346 70.4765 57.2976 70.248 56.2493 70.0014C55.3034 69.7789 54.6527 70.0916 54.2309 70.9576C53.7128 72.0281 53.2127 73.1046 52.6343 74.145C52.1704 74.9809 51.6823 75.8289 51.0618 76.5505C49.8146 78.0059 48.1155 78.3788 46.3683 77.5789C45.4766 77.17 44.6632 76.5806 43.8559 76.0153C43.0425 75.444 42.3014 74.7825 41.5061 74.1931C40.1987 73.2309 39.8553 73.2309 38.5659 74.1751C37.7646 74.7644 37.0235 75.4259 36.2162 75.9973C35.4329 76.5566 34.6436 77.1339 33.7821 77.5368C31.9505 78.4028 30.155 78.0179 28.8898 76.4363C28.1728 75.5402 27.6426 74.4878 27.0762 73.4774C26.6063 72.6415 26.1966 71.7635 25.7748 70.9035C25.3651 70.0616 24.7144 69.7909 23.8167 69.9894C22.4611 70.2901 21.1054 70.6088 19.7378 70.8434C18.9605 70.9757 18.1532 71.0599 17.376 70.9937C15.3395 70.8193 13.9899 69.6586 13.6585 67.638C13.4296 66.2548 13.4115 64.8235 13.3995 63.4102C13.3814 60.2168 13.4055 60.2289 10.2665 59.4892C9.08557 59.2125 7.88659 58.9419 6.74786 58.5269C4.03059 57.5707 3.01236 55.52 3.94021 52.8077C4.45234 51.3163 5.20546 49.9091 5.84411 48.4597C6.60326 46.7458 6.53699 46.4932 5.10304 45.2844C3.91009 44.2801 2.63881 43.3539 1.55431 42.2474C-0.524315 40.1365 -0.524315 37.8512 1.56034 35.7344C2.66894 34.6098 3.96431 33.6656 5.17534 32.6432C6.51289 31.5126 6.59121 31.2059 5.88026 29.5942C5.26571 28.199 4.53669 26.8398 4.01854 25.4085C2.96416 22.4677 3.94624 20.405 6.89246 19.3886C8.33244 18.8895 9.85074 18.6128 11.3269 18.234C13.0982 17.7769 13.2428 17.6326 13.3211 15.8284C13.3874 14.355 13.3392 12.8816 13.4416 11.4142C13.6646 8.2389 15.5504 6.68131 18.7195 7.00004C19.3642 7.06619 20.0089 7.18647 20.6475 7.31276C21.7019 7.52325 22.7563 7.73975 23.8046 7.98632C24.7144 8.1968 25.3531 7.89611 25.7628 7.06619C26.1725 6.23027 26.5822 5.38832 27.022 4.56442C27.4859 3.69241 27.9197 2.79033 28.4921 1.98447C29.9803 -0.108362 32.083 -0.577444 34.3002 0.715539C35.3245 1.31091 36.2704 2.05062 37.1982 2.79033C39.9758 5.01546 40.036 5.01546 42.7834 2.80837C43.7113 2.06866 44.6572 1.32294 45.6754 0.727567C47.9227 -0.589472 50.0556 -0.108362 51.5438 2.02656C52.1402 2.88054 52.5921 3.83674 53.0862 4.75687C53.5139 5.55671 53.9116 6.36858 54.3153 7.17444C54.6888 7.91415 55.2853 8.16072 56.0806 7.99233C57.4663 7.69765 58.8521 7.38493 60.2439 7.12633C60.9126 7.00004 61.5995 6.90983 62.2683 6.92788C64.7988 7.00606 66.3111 8.55162 66.552 11.2879C66.6304 12.1599 66.6364 13.044 66.6726 13.916C66.6605 13.928 66.6364 13.928 66.6123 13.934ZM62.9431 14.1265C62.9611 14.1265 62.9852 14.1205 63.0033 14.1205C63.0033 13.7236 63.0093 13.3266 63.0033 12.9297C62.9973 12.5027 63.0033 12.0758 62.9551 11.6548C62.8406 10.6024 62.7081 10.452 61.6718 10.6024C60.4668 10.7768 59.2799 11.0534 58.0869 11.312C53.9538 12.2081 52.2366 11.3661 50.387 7.55332C49.8447 6.43474 49.2603 5.3342 48.6819 4.23366C48.3445 3.6022 47.8745 3.49395 47.2961 3.93898C46.2418 4.75085 45.1814 5.55671 44.127 6.36858C41.0241 8.76211 38.9395 8.75609 35.8607 6.35054C35.7462 6.26033 35.6438 6.17013 35.5293 6.07992C34.6738 5.42441 33.8423 4.73882 32.9627 4.11939C31.9565 3.40976 31.7275 3.44584 31.1311 4.54037C30.4081 5.85139 29.8056 7.22857 29.0826 8.54561C27.6004 11.2398 25.9255 12.0337 22.8889 11.4864C21.5212 11.2398 20.1776 10.891 18.8099 10.6384C17.3338 10.3618 17.0506 10.6024 17.0145 12.0998C16.9783 13.4048 17.0265 14.7098 16.9723 16.0088C16.8397 19.3104 15.6649 20.7899 12.4957 21.6559C11.4835 21.9325 10.4532 22.131 9.43502 22.3775C6.89849 22.9909 6.86234 23.0812 7.92877 25.4446C8.55537 26.8338 9.21812 28.217 9.72422 29.6483C10.3508 31.4104 9.88689 32.998 8.61562 34.3451C8.15169 34.8383 7.63956 35.2893 7.12141 35.7283C6.23574 36.4801 5.30186 37.1777 4.43426 37.9475C3.42809 38.8435 3.42809 39.1322 4.45234 40.0403C5.60311 41.0506 6.84426 41.9587 7.97094 42.9871C10.1098 44.9356 10.4894 46.6315 9.41092 49.3197C8.91687 50.5525 8.29629 51.7313 7.74801 52.9461C6.91656 54.7923 7.01296 54.9727 8.95904 55.4779C10.4954 55.8748 12.0499 56.1996 13.5561 56.6807C15.5323 57.3182 16.6349 58.7495 16.8337 60.8122C16.9422 61.9669 16.9422 63.1276 16.9843 64.2882C17.0084 64.9979 17.0084 65.7015 17.0446 66.4111C17.0807 67.1629 17.4181 67.5658 18.2375 67.4034C19.4606 67.1569 20.6837 66.9283 21.9007 66.6697C26.0761 65.7977 27.7631 66.6156 29.6007 70.4284C30.0707 71.3966 30.5225 72.3709 31.0407 73.3151C31.7095 74.5299 31.9685 74.584 33.1133 73.7541C33.9869 73.1226 34.8244 72.4431 35.6679 71.7695C38.9515 69.1595 41.0241 69.1655 44.3318 71.7815C45.2175 72.4852 46.1032 73.2008 47.025 73.8563C48.0312 74.566 48.2541 74.5239 48.8566 73.4353C49.5796 72.1243 50.1821 70.7471 50.9051 69.4301C52.3873 66.7359 54.0803 65.936 57.0988 66.4833C58.4906 66.7359 59.8643 67.0967 61.2621 67.3433C62.6659 67.5899 62.925 67.3673 62.9732 65.9541C63.0154 64.5949 62.9611 63.2358 63.0214 61.8767C63.166 58.6412 64.3529 57.1678 67.492 56.3138C68.6367 56.0011 69.8055 55.7666 70.9623 55.4779C72.9928 54.9667 73.0651 54.8044 72.2336 52.916C71.5648 51.3885 70.8298 49.885 70.2635 48.3214C69.6308 46.5653 70.0947 44.9717 71.3721 43.6306C71.842 43.1374 72.3481 42.6864 72.8663 42.2474C73.7519 41.4956 74.6918 40.804 75.5534 40.0283C76.5475 39.1442 76.5295 38.8435 75.5414 37.9234C75.1076 37.5205 74.6316 37.1536 74.1737 36.7748C73.3904 36.1192 72.5831 35.4938 71.8239 34.8142C69.9743 33.1664 69.5344 31.1698 70.4804 28.8966C71.0106 27.6156 71.6311 26.3768 72.1975 25.1138C73.0711 23.1653 72.9988 23.027 70.9322 22.4858C69.3175 22.0588 67.6848 21.6919 66.1062 21.1567C64.3228 20.5553 63.3889 19.1661 63.16 17.3379C63.0455 16.2734 63.0214 15.197 62.9431 14.1265Z" fill="#248742"/>
<path d="M25.6603 55.6044C24.9855 55.0691 24.2143 54.7444 23.9673 54.1851C23.7142 53.6198 23.907 52.8079 24.0516 52.1344C24.1239 51.8096 24.5216 51.551 24.7927 51.2804C33.9567 42.1333 43.1208 32.9862 52.2788 23.8391C53.5862 22.534 54.8213 22.3476 55.7492 23.3038C56.6529 24.236 56.4541 25.4388 55.1889 26.7017C46.0007 35.8728 36.8186 45.044 27.6184 54.1971C27.1184 54.7143 26.4436 55.0631 25.6603 55.6044Z" fill="#248742"/>
<path d="M36.9331 28.7643C36.9452 32.7094 33.7158 35.9389 29.7694 35.9329C25.8652 35.9269 22.6539 32.7335 22.6237 28.8305C22.5936 24.9215 25.8712 21.6439 29.7935 21.6499C33.6977 21.668 36.9211 24.8794 36.9331 28.7643ZM26.7448 28.7764C26.7328 30.4542 28.0643 31.8314 29.7332 31.8735C31.3961 31.9156 32.8723 30.4542 32.8602 28.7884C32.8482 27.1286 31.4684 25.7754 29.7935 25.7694C28.0824 25.7634 26.7569 27.0744 26.7448 28.7764Z" fill="#248742"/>
<path d="M43.0664 49.1755C43.0724 45.2725 46.2777 42.0731 50.1819 42.0611C54.1283 42.049 57.3878 45.2905 57.3698 49.2116C57.3517 53.0965 54.1404 56.3079 50.2422 56.344C46.332 56.3741 43.0604 53.1086 43.0664 49.1755ZM50.2482 52.2305C51.9412 52.2185 53.2607 50.8774 53.2547 49.1815C53.2487 47.5096 51.887 46.1385 50.2241 46.1264C48.5612 46.1144 47.0971 47.5938 47.1393 49.2537C47.1875 50.9135 48.5733 52.2426 50.2482 52.2305Z" fill="#248742"/>
</g>
<defs>
<clipPath id="clip0_310_4132">
<rect width="80" height="78" fill="white"/>
</clipPath>
</defs>
</svg>
