<svg width="19" height="15" viewBox="0 0 19 15" fill="none" xmlns="http://www.w3.org/2000/svg">
<path d="M18.9984 5.14132C18.9123 5.56909 18.8231 5.99686 18.7417 6.42637C18.6588 6.86637 18.5116 7.0043 18.1046 7.0043C17.97 7.0043 17.8354 7.0043 17.6695 7.0043C17.7603 7.14398 17.8385 7.25572 17.909 7.37271C18.7949 8.84982 18.64 10.7704 17.5396 12.052C17.4832 12.1166 17.4472 12.2301 17.4456 12.3209C17.4378 12.9145 17.4425 13.5064 17.4409 14.1C17.4394 14.6727 17.1498 14.9957 16.6348 14.9975C16.1151 14.9992 15.5954 14.9992 15.0773 14.9975C14.5717 14.9957 14.2852 14.6762 14.2806 14.114C14.279 13.8731 14.2806 13.6321 14.2806 13.372C11.0967 13.372 7.92222 13.372 4.718 13.372C4.718 13.5937 4.718 13.8172 4.718 14.0424C4.71644 14.7007 4.44877 14.9992 3.85707 14.9992C3.35617 14.9992 2.85527 15.001 2.35437 14.9992C1.85033 14.9957 1.56075 14.6727 1.55762 14.114C1.55605 13.4994 1.56075 12.8866 1.55292 12.272C1.55135 12.1882 1.51692 12.0799 1.4637 12.0223C0.31162 10.7774 0.195786 8.56522 1.21168 7.14049C1.23359 7.10906 1.25238 7.07414 1.29464 7.00605C1.11776 7.00605 0.965924 7.00779 0.815653 7.00605C0.513546 7.00081 0.33823 6.85414 0.274052 6.52764C0.178567 6.05098 0.0893439 5.57083 0.00951248 5.09069C-0.0499698 4.73276 0.175437 4.44641 0.519807 4.44292C1.06454 4.43594 1.60771 4.43419 2.15244 4.44467C2.29332 4.44816 2.35906 4.39752 2.40915 4.25435C2.68621 3.46516 2.99458 2.69343 3.43913 1.99503C3.75063 1.50615 4.16544 1.1779 4.64756 0.936956C5.54919 0.489981 6.5009 0.269985 7.47297 0.137289C8.69235 -0.0303266 9.91487 -0.0425485 11.1374 0.0901473C12.1674 0.201891 13.1739 0.420141 14.1475 0.833942C14.9536 1.17616 15.5344 1.77504 15.9148 2.6201C16.1589 3.16136 16.375 3.71659 16.5957 4.27007C16.6458 4.39403 16.6974 4.44641 16.8258 4.44292C17.3392 4.43244 17.8526 4.4499 18.366 4.43419C18.665 4.42546 18.881 4.53546 19 4.84974C18.9984 4.94926 18.9984 5.04529 18.9984 5.14132ZM15.3622 5.28798C15.2651 4.83228 14.7689 3.5996 14.5091 3.13691C14.3573 2.86803 14.1694 2.65676 13.9127 2.50835C13.3414 2.17836 12.7293 1.99678 12.1016 1.87107C10.7116 1.59171 9.31222 1.55679 7.90969 1.71218C7.03468 1.80996 6.17375 1.97932 5.35509 2.35994C4.9528 2.54677 4.61156 2.80692 4.42372 3.2539C4.15135 3.90166 3.89934 4.55816 3.63949 5.21291C3.63167 5.23386 3.64263 5.26354 3.64419 5.28973C7.55123 5.28798 11.4505 5.28798 15.3622 5.28798ZM16.3296 9.61631C16.3343 8.73284 15.6846 8.00301 14.8973 8.0065C14.1178 8.00825 13.4713 8.72935 13.4666 9.59885C13.4619 10.4788 14.1131 11.2087 14.9004 11.2052C15.6862 11.2034 16.3264 10.4911 16.3296 9.61631ZM4.19518 11.1964C4.98724 11.1598 5.57736 10.395 5.54449 9.54822C5.50692 8.58967 4.7947 7.96809 4.05431 8.01349C3.17459 8.06761 2.64551 8.86553 2.68934 9.6652C2.73787 10.6028 3.41565 11.2698 4.19518 11.1964Z" fill="white"/>
</svg>
