<svg width="47" height="78" viewBox="0 0 47 78" fill="none" xmlns="http://www.w3.org/2000/svg">
<path d="M46.3344 28.985C46.7731 27.1668 47 25.3034 47 23.44C47 10.5167 36.4564 0 23.5 0C10.5436 0 0 10.5167 0 23.44C0 25.3034 0.226907 27.1668 0.665594 28.985C1.29337 32.7873 2.15562 35.8503 3.22964 38.106C5.53653 42.9419 15.2557 58.913 19.7182 66.1932C13.6901 66.9477 10.8915 69.5354 10.8915 71.9721C10.8915 74.8767 14.8397 78 23.5 78C32.1678 78 36.1085 74.8767 36.1085 71.9721C36.1085 69.5354 33.3099 66.9477 27.2742 66.1782C31.7367 58.9055 41.4559 42.9343 43.7628 38.0909C44.8444 35.8503 45.6991 32.7798 46.3344 28.985ZM32.478 71.9721C32.2359 72.6587 29.1954 74.3788 23.5 74.3788C17.7366 74.3788 14.696 72.6209 14.5145 71.9948C14.6809 71.3912 17.1542 69.9201 21.836 69.6183C21.889 69.7089 21.9343 69.7768 21.957 69.8069C22.2898 70.3426 22.8722 70.667 23.5 70.667C24.1278 70.667 24.7102 70.3426 25.043 69.8069C25.0657 69.7692 25.1035 69.7013 25.164 69.6183C29.7853 69.9126 32.2586 71.3611 32.478 71.9721ZM6.50467 36.5443C5.58948 34.6206 4.80286 31.7764 4.2356 28.3287C4.22803 28.2834 4.22047 28.2381 4.20534 28.1853C3.82716 26.6312 3.63051 25.0318 3.63051 23.44C3.63051 12.5084 12.5404 3.62124 23.5 3.62124C34.4596 3.62124 43.3695 12.5084 43.3695 23.44C43.3695 25.0318 43.1728 26.6312 42.7947 28.1853C42.7795 28.2306 42.772 28.2758 42.7644 28.3287C42.1971 31.7764 41.4105 34.6206 40.4953 36.5443C38.1658 41.4255 27.5238 58.8602 23.5 65.4086C19.4762 58.8602 8.84181 41.4255 6.50467 36.5443Z" fill="#248742"/>
<path d="M23.5001 10.1848C16.5491 10.1848 10.8916 15.8279 10.8916 22.7611C10.8916 29.6942 16.5491 35.3373 23.5001 35.3373C30.451 35.3373 36.1085 29.6942 36.1085 22.7611C36.1085 15.8279 30.451 10.1848 23.5001 10.1848ZM14.5146 22.7611C14.5146 17.8196 18.5459 13.7985 23.5001 13.7985C28.4542 13.7985 32.478 17.8196 32.478 22.7611C32.478 27.7026 28.4466 31.7161 23.5001 31.7161C18.5459 31.7236 14.5146 27.7026 14.5146 22.7611Z" fill="#248742"/>
</svg>
