<svg width="21" height="18" viewBox="0 0 21 18" fill="none" xmlns="http://www.w3.org/2000/svg">
<path d="M21 5.42397C21 5.7025 21 5.98102 21 6.25955C20.9892 6.31734 20.9733 6.37415 20.9687 6.43244C20.8891 7.40653 20.5704 8.30687 20.0807 9.1549C19.4637 10.2232 18.6491 11.1414 17.7581 11.9955C15.5982 14.0657 13.2217 15.8993 10.938 17.8345C10.667 18.0642 10.3431 18.0497 10.0613 17.8225C9.82524 17.6317 9.59323 17.4364 9.36174 17.2401C7.52623 15.683 5.67429 14.1439 3.8629 12.561C2.73932 11.5794 1.71223 10.4992 0.969504 9.20473C-0.278809 7.03035 -0.345536 4.82258 0.908423 2.63425C1.60341 1.4215 2.6767 0.607846 4.06103 0.227677C5.53776 -0.177902 6.9534 -0.0319133 8.27049 0.770277C9.10869 1.28049 9.74722 1.98054 10.2697 2.78721C10.3467 2.90629 10.4222 3.02637 10.4781 3.11407C10.8749 2.61731 11.2224 2.09414 11.6577 1.65318C13.1924 0.099626 15.0572 -0.374712 17.1581 0.296935C19.1352 0.92922 20.2819 2.34825 20.7926 4.2735C20.8922 4.64919 20.9322 5.04032 21 5.42397Z" fill="#FD5861"/>
</svg>
