<svg width="14" height="11" viewBox="0 0 14 11" fill="none" xmlns="http://www.w3.org/2000/svg">
<path d="M13.5853 0.234829C13.5371 0.0969649 13.4797 0.0583624 13.3908 0.025275C13.1964 -0.0482524 12.8668 0.0620389 12.8668 0.0620389C12.8668 0.0620389 1.18342 4.22921 0.516751 4.69243C0.372306 4.79169 0.324158 4.84868 0.301936 4.91669C0.187121 5.24573 0.54638 5.39094 0.54638 5.39094L3.55749 6.36518C3.55749 6.36518 3.67045 6.38172 3.70934 6.35599C4.39453 5.92585 10.6019 2.03625 10.9593 1.90574C11.0168 1.8892 11.0575 1.90758 11.0464 1.94618C10.9038 2.44617 5.51305 7.20156 5.51305 7.20156C5.51305 7.20156 5.49268 7.22729 5.47971 7.2567L5.47231 7.25303L5.19082 10.218C5.19082 10.218 5.07231 11.1261 5.98897 10.218C6.63527 9.57649 7.25934 9.04158 7.57231 8.78056C8.60749 9.4901 9.72231 10.275 10.2019 10.6849C10.4427 10.8908 10.6464 10.9239 10.8112 10.9184C11.2667 10.9018 11.3945 10.4037 11.3945 10.4037C11.3945 10.4037 13.5242 1.89839 13.5945 0.758712C13.6019 0.646582 13.6112 0.576731 13.6112 0.499527C13.613 0.392913 13.6019 0.28446 13.5853 0.234829Z" fill="white"/>
</svg>
