<svg width="27" height="22" viewBox="0 0 27 22" fill="none" xmlns="http://www.w3.org/2000/svg">
<path d="M13.479 22C10.1235 22 6.76804 22.0007 3.41258 22C1.41583 22 0 20.6668 0 18.7889C0 14.7265 0 10.6648 0 6.60233C0 4.70959 1.41358 3.3863 3.43437 3.3856C4.58717 3.3856 5.73998 3.38136 6.89279 3.38983C7.08292 3.39125 7.1731 3.34674 7.22871 3.16658C7.34594 2.78718 7.48422 2.41273 7.63001 2.04181C8.12149 0.788467 9.31563 0.00424126 10.7367 0.00141522C12.5734 -0.00211733 14.4108 -0.00141082 16.2475 0.00141522C17.7077 0.00353475 18.9078 0.805423 19.3963 2.10116C19.5308 2.45724 19.6646 2.81403 19.7751 3.17718C19.8269 3.34815 19.9133 3.38983 20.0907 3.38842C21.2811 3.38136 22.4714 3.38348 23.6618 3.38489C25.5616 3.38772 26.9977 4.74209 26.9985 6.5338C27 10.64 27 14.7463 26.9985 18.8525C26.9977 20.6414 25.5586 21.9972 23.6573 21.9979C20.265 22.0014 16.872 22 13.479 22ZM13.5053 20.3093C16.8525 20.3093 20.1989 20.31 23.5461 20.3093C24.5922 20.3093 25.2017 19.7342 25.2017 18.7479C25.2024 14.7109 25.2024 10.6747 25.2017 6.63766C25.2017 5.64996 24.5937 5.07769 23.5461 5.07698C22.14 5.07627 20.7332 5.07698 19.3272 5.07627C18.762 5.07627 18.4832 4.89046 18.3029 4.38813C18.1052 3.83847 17.9158 3.28598 17.7189 2.73631C17.4717 2.04393 16.9554 1.6928 16.1806 1.69209C14.3898 1.69068 12.5997 1.68997 10.8089 1.69209C10.0506 1.6928 9.52831 2.04676 9.28632 2.72077C9.08567 3.27891 8.89404 3.83988 8.69339 4.39732C8.51678 4.88834 8.23722 5.07486 7.69088 5.07557C6.29384 5.07627 4.89679 5.07557 3.5005 5.07627C2.39279 5.07627 1.79985 5.633 1.79985 6.67369C1.79985 10.6838 1.79985 14.694 1.79985 18.7041C1.79985 19.7491 2.39053 20.3086 3.49374 20.3086C6.82966 20.3093 10.1678 20.3093 13.5053 20.3093Z" fill="#53B7FF"/>
<path d="M13.4965 5.92481C17.2465 5.92905 20.254 8.76851 20.2495 12.3011C20.245 15.7891 17.2157 18.618 13.4882 18.6151C9.74573 18.6123 6.74422 15.7665 6.75099 12.2262C6.757 8.75367 9.78931 5.92057 13.4965 5.92481ZM18.4504 12.253C18.4271 9.6792 16.1944 7.59924 13.4754 7.61761C10.7325 7.63598 8.52829 9.74349 8.55009 12.3258C8.57188 14.8643 10.8219 16.9379 13.5386 16.9237C16.2402 16.9096 18.4737 14.7859 18.4504 12.253Z" fill="#53B7FF"/>
<path d="M22.5134 6.77153C23.0056 6.77648 23.3986 7.15164 23.3994 7.61581C23.3994 8.09059 22.9943 8.46645 22.4871 8.46151C21.9858 8.45656 21.5905 8.06727 21.6018 7.59038C21.6123 7.12762 22.0144 6.76659 22.5134 6.77153Z" fill="#53B7FF"/>
</svg>
