<svg width="19" height="11" viewBox="0 0 19 11" fill="none" xmlns="http://www.w3.org/2000/svg">
<path d="M11.1058 3.47077C11.1365 4.06796 11.1504 4.66605 11.2119 5.26052C11.2277 5.41186 11.3724 5.6375 11.5052 5.67012C11.6399 5.70365 11.8738 5.57588 11.9927 5.45807C12.9837 4.47484 13.7061 3.33665 14.2501 2.09968C14.5633 1.38922 14.6188 1.35841 15.4512 1.35841C16.2915 1.35841 17.1328 1.3584 17.9732 1.35931C18.097 1.35931 18.2209 1.3575 18.3438 1.37109C18.9532 1.43725 19.1266 1.6502 18.8977 2.1613C18.6986 2.60715 18.4578 3.04757 18.1624 3.44449C17.5926 4.21023 16.9703 4.94335 16.3738 5.69187C16.2509 5.84683 16.1399 6.01086 16.0299 6.17397C15.8168 6.48933 15.8704 6.77569 16.1518 7.03215C16.5284 7.3756 16.9257 7.70184 17.2775 8.06432C17.7928 8.59626 18.3101 9.13092 18.763 9.70636C19.2654 10.3443 18.9384 10.8944 18.0723 10.9098C17.1953 10.9261 16.3163 10.9189 15.4393 10.9007C14.8725 10.889 14.3839 10.6796 13.9885 10.3054C13.5248 9.86676 13.0758 9.41456 12.6042 8.9823C12.3812 8.7784 12.1463 8.52467 11.7797 8.61619C11.3991 8.71225 11.3942 9.0548 11.3228 9.333C11.2495 9.61846 11.2109 9.91116 11.1564 10.2002C11.0721 10.647 10.8531 10.8282 10.3715 10.859C7.76926 11.0258 5.65455 10.1649 4.03136 8.31171C2.55483 6.62708 1.41226 4.75576 0.446072 2.79021C0.314274 2.52288 0.170585 2.25917 0.0546424 1.9864C-0.10292 1.61577 0.0883356 1.35478 0.524358 1.35297C1.41424 1.34844 2.30511 1.35387 3.19499 1.36656C3.6766 1.3729 4.00163 1.58858 4.18298 2.00725C4.67549 3.14816 5.32258 4.21113 6.14211 5.1844C6.24715 5.30945 6.36012 5.43179 6.48795 5.53601C6.91505 5.88671 7.18658 5.8269 7.2609 5.31489C7.35306 4.68055 7.36396 4.03533 7.39369 3.39374C7.40459 3.15722 7.36792 2.9198 7.35702 2.68237C7.33423 2.17036 7.09144 1.88763 6.5593 1.75623C6.22436 1.67376 6.16391 1.52877 6.43246 1.32669C6.63164 1.17626 6.90019 1.02039 7.14198 1.01405C8.20231 0.984143 9.26561 0.985048 10.3259 1.02039C10.8521 1.03761 11.1088 1.28681 11.1445 1.77707C11.1841 2.33892 11.1534 2.90439 11.1534 3.46895C11.1375 3.46986 11.1217 3.47077 11.1058 3.47077Z" fill="white"/>
</svg>
